<svg preserveAspectRatio="none" width="100%" height="100%" overflow="visible" style="display: block;" viewBox="0 0 349 203" fill="none" xmlns="http://www.w3.org/2000/svg">
<g id="Icons">
<g id="Vector">
<path d="M98.7857 59.9571C98.7857 57.0969 98.7857 55.6667 99.3424 54.5743C99.832 53.6133 100.613 52.832 101.574 52.3424C102.667 51.7857 104.097 51.7857 106.957 51.7857H108.285V58.1534C108.064 57.7021 107.798 57.2766 107.463 56.9414C106.875 56.3542 106.047 55.8318 105.147 55.6414C104.221 55.4455 103.193 55.6038 102.366 56.431C101.942 56.8547 101.708 57.3548 101.657 57.8901C101.607 58.4125 101.735 58.9184 101.948 59.3696C102.29 60.0957 102.887 60.7615 103.549 61.285H98.7857V59.9571Z" fill="var(--fill-0, #008BFF)" style="fill:#008BFF;fill:color(display-p3 0.0000 0.5451 1.0000);fill-opacity:1;"/>
<path d="M98.7857 62.715V64.0429C98.7857 66.9031 98.7857 68.3333 99.3424 69.4257C99.832 70.3867 100.613 71.168 101.574 71.6576C102.667 72.2143 104.097 72.2143 106.957 72.2143H108.285V64.6235C106.878 66.5683 105.129 67.8955 103.012 68.319C102.624 68.3964 102.248 68.1453 102.17 67.7581C102.093 67.3709 102.344 66.9942 102.731 66.9167C104.717 66.5196 106.429 65.0876 107.824 62.715H98.7857Z" fill="var(--fill-0, #008BFF)" style="fill:#008BFF;fill:color(display-p3 0.0000 0.5451 1.0000);fill-opacity:1;"/>
<path d="M110.176 62.715C111.571 65.0876 113.283 66.5196 115.269 66.9167C115.656 66.9942 115.907 67.3709 115.83 67.7581C115.752 68.1453 115.376 68.3964 114.988 68.319C112.871 67.8955 111.122 66.5683 109.715 64.6235V72.2143H111.043C113.903 72.2143 115.333 72.2143 116.426 71.6576C117.387 71.168 118.168 70.3867 118.658 69.4257C119.214 68.3333 119.214 66.9031 119.214 64.0429V62.715H110.176Z" fill="var(--fill-0, #008BFF)" style="fill:#008BFF;fill:color(display-p3 0.0000 0.5451 1.0000);fill-opacity:1;"/>
<path d="M119.214 61.285V59.9571C119.214 57.0969 119.214 55.6667 118.658 54.5743C118.168 53.6133 117.387 52.832 116.426 52.3424C115.333 51.7857 113.903 51.7857 111.043 51.7857H109.715V58.1534C109.936 57.7021 110.202 57.2766 110.537 56.9414C111.125 56.3542 111.953 55.8318 112.853 55.6414C113.779 55.4455 114.807 55.6038 115.634 56.431C116.058 56.8547 116.292 57.3548 116.343 57.8901C116.393 58.4125 116.265 58.9184 116.052 59.3696C115.71 60.0957 115.113 60.7615 114.451 61.285H119.214Z" fill="var(--fill-0, #008BFF)" style="fill:#008BFF;fill:color(display-p3 0.0000 0.5451 1.0000);fill-opacity:1;"/>
<path d="M113.149 57.0405C112.573 57.1623 111.982 57.5193 111.548 57.9529C111.167 58.3344 110.864 59.0051 110.561 59.8701C110.489 60.0753 110.416 60.2938 110.342 60.5174C110.259 60.7655 110.175 61.02 110.087 61.2692C110.256 61.2533 110.439 61.2333 110.629 61.2079C111.572 61.0822 112.579 60.8417 113.2 60.428C113.895 59.9645 114.483 59.3454 114.758 58.7602C114.893 58.4736 114.939 58.2275 114.92 58.0262C114.902 57.8379 114.824 57.6428 114.623 57.4422C114.202 57.0211 113.698 56.9243 113.149 57.0405Z" fill="var(--fill-0, #008BFF)" style="fill:#008BFF;fill:color(display-p3 0.0000 0.5451 1.0000);fill-opacity:1;"/>
<path d="M106.452 57.9529C106.018 57.5193 105.427 57.1623 104.851 57.0405C104.302 56.9243 103.798 57.0211 103.377 57.4422C103.176 57.6428 103.098 57.8379 103.08 58.0262C103.061 58.2275 103.107 58.4736 103.242 58.7602C103.517 59.3454 104.105 59.9645 104.8 60.428C105.421 60.8417 106.428 61.0822 107.371 61.2079C107.561 61.2333 107.744 61.2533 107.913 61.2692C107.825 61.0199 107.741 60.7655 107.658 60.5174C107.584 60.2938 107.511 60.0753 107.439 59.8701C107.136 59.0051 106.833 58.3344 106.452 57.9529Z" fill="var(--fill-0, #008BFF)" style="fill:#008BFF;fill:color(display-p3 0.0000 0.5451 1.0000);fill-opacity:1;"/>
<path d="M162 22.8C162 19.7197 162 18.1796 162.599 17.0031C163.127 15.9682 163.968 15.1268 165.003 14.5995C166.18 14 167.72 14 170.8 14H172.23V20.8575C171.993 20.3715 171.706 19.9133 171.344 19.5523C170.712 18.9199 169.82 18.3573 168.851 18.1523C167.854 17.9413 166.747 18.1118 165.856 19.0026C165.399 19.4589 165.147 19.9975 165.092 20.574C165.038 21.1365 165.177 21.6813 165.405 22.1673C165.774 22.9492 166.416 23.6662 167.13 24.23H162V22.8Z" fill="var(--fill-0, #008BFF)" style="fill:#008BFF;fill:color(display-p3 0.0000 0.5451 1.0000);fill-opacity:1;"/>
<path d="M162 25.77V27.2C162 30.2803 162 31.8204 162.599 32.9969C163.127 34.0318 163.968 34.8732 165.003 35.4005C166.18 36 167.72 36 170.8 36H172.23V27.8253C170.715 29.9197 168.831 31.349 166.551 31.805C166.134 31.8884 165.728 31.618 165.645 31.201C165.562 30.784 165.832 30.3784 166.249 30.295C168.387 29.8673 170.232 28.3251 171.733 25.77H162Z" fill="var(--fill-0, #008BFF)" style="fill:#008BFF;fill:color(display-p3 0.0000 0.5451 1.0000);fill-opacity:1;"/>
<path d="M174.267 25.77C175.768 28.3251 177.613 29.8673 179.751 30.295C180.168 30.3784 180.438 30.784 180.355 31.201C180.272 31.618 179.866 31.8884 179.449 31.805C177.169 31.349 175.285 29.9197 173.77 27.8253V36H175.2C178.28 36 179.82 36 180.997 35.4005C182.032 34.8732 182.873 34.0318 183.401 32.9969C184 31.8204 184 30.2803 184 27.2V25.77H174.267Z" fill="var(--fill-0, #008BFF)" style="fill:#008BFF;fill:color(display-p3 0.0000 0.5451 1.0000);fill-opacity:1;"/>
<path d="M184 24.23V22.8C184 19.7197 184 18.1796 183.401 17.0031C182.873 15.9682 182.032 15.1268 180.997 14.5995C179.82 14 178.28 14 175.2 14H173.77V20.8575C174.007 20.3715 174.294 19.9133 174.656 19.5523C175.288 18.9199 176.18 18.3573 177.149 18.1523C178.146 17.9413 179.253 18.1118 180.144 19.0026C180.601 19.4589 180.853 19.9975 180.908 20.574C180.962 21.1365 180.823 21.6813 180.595 22.1673C180.226 22.9492 179.584 23.6662 178.87 24.23H184Z" fill="var(--fill-0, #008BFF)" style="fill:#008BFF;fill:color(display-p3 0.0000 0.5451 1.0000);fill-opacity:1;"/>
<path d="M177.468 19.659C176.847 19.7902 176.212 20.1746 175.744 20.6416C175.333 21.0524 175.007 21.7747 174.681 22.7063C174.603 22.9272 174.525 23.1626 174.445 23.4034C174.356 23.6705 174.265 23.9446 174.17 24.213C174.353 24.1959 174.55 24.1743 174.755 24.147C175.77 24.0116 176.855 23.7526 177.523 23.3071C178.272 22.808 178.905 22.1412 179.201 21.511C179.347 21.2023 179.396 20.9373 179.375 20.7205C179.356 20.5177 179.272 20.3076 179.056 20.0916C178.602 19.6381 178.059 19.5338 177.468 19.659Z" fill="var(--fill-0, #008BFF)" style="fill:#008BFF;fill:color(display-p3 0.0000 0.5451 1.0000);fill-opacity:1;"/>
<path d="M170.256 20.6416C169.788 20.1746 169.153 19.7902 168.532 19.659C167.941 19.5338 167.398 19.6381 166.944 20.0916C166.728 20.3076 166.644 20.5177 166.625 20.7205C166.604 20.9373 166.653 21.2023 166.799 21.511C167.095 22.1412 167.728 22.808 168.477 23.3071C169.145 23.7526 170.23 24.0116 171.245 24.147C171.45 24.1743 171.647 24.1959 171.83 24.213C171.735 23.9445 171.644 23.6706 171.555 23.4034C171.475 23.1626 171.397 22.9272 171.319 22.7063C170.993 21.7747 170.667 21.0524 170.256 20.6416Z" fill="var(--fill-0, #008BFF)" style="fill:#008BFF;fill:color(display-p3 0.0000 0.5451 1.0000);fill-opacity:1;"/>
<path d="M229.25 60.85C229.25 58.5398 229.25 57.3847 229.7 56.5023C230.095 55.7261 230.726 55.0951 231.502 54.6996C232.385 54.25 233.54 54.25 235.85 54.25H236.923V59.3931C236.744 59.0286 236.529 58.6849 236.258 58.4142C235.784 57.9399 235.115 57.518 234.388 57.3642C233.64 57.2059 232.81 57.3338 232.142 58.002C231.799 58.3442 231.61 58.7481 231.569 59.1805C231.529 59.6024 231.632 60.011 231.804 60.3755C232.08 60.9619 232.562 61.4996 233.097 61.9225H229.25V60.85Z" fill="var(--fill-0, #008BFF)" style="fill:#008BFF;fill:color(display-p3 0.0000 0.5451 1.0000);fill-opacity:1;"/>
<path d="M229.25 63.0775V64.15C229.25 66.4602 229.25 67.6153 229.7 68.4977C230.095 69.2739 230.726 69.9049 231.502 70.3004C232.385 70.75 233.54 70.75 235.85 70.75H236.923V64.619C235.786 66.1898 234.373 67.2618 232.663 67.6038C232.351 67.6663 232.046 67.4635 231.984 67.1508C231.921 66.838 232.124 66.5338 232.437 66.4712C234.04 66.1505 235.424 64.9939 236.55 63.0775H229.25Z" fill="var(--fill-0, #008BFF)" style="fill:#008BFF;fill:color(display-p3 0.0000 0.5451 1.0000);fill-opacity:1;"/>
<path d="M238.45 63.0775C239.576 64.9939 240.96 66.1505 242.563 66.4712C242.876 66.5338 243.079 66.838 243.016 67.1508C242.954 67.4635 242.649 67.6663 242.337 67.6038C240.627 67.2618 239.214 66.1898 238.078 64.619V70.75H239.15C241.46 70.75 242.615 70.75 243.498 70.3004C244.274 69.9049 244.905 69.2739 245.3 68.4977C245.75 67.6153 245.75 66.4602 245.75 64.15V63.0775H238.45Z" fill="var(--fill-0, #008BFF)" style="fill:#008BFF;fill:color(display-p3 0.0000 0.5451 1.0000);fill-opacity:1;"/>
<path d="M245.75 61.9225V60.85C245.75 58.5398 245.75 57.3847 245.3 56.5023C244.905 55.7261 244.274 55.0951 243.498 54.6996C242.615 54.25 241.46 54.25 239.15 54.25H238.078V59.3931C238.256 59.0286 238.471 58.6849 238.742 58.4142C239.216 57.9399 239.885 57.518 240.612 57.3642C241.36 57.2059 242.19 57.3338 242.858 58.002C243.201 58.3442 243.39 58.7481 243.431 59.1805C243.471 59.6024 243.368 60.011 243.196 60.3755C242.92 60.9619 242.438 61.4996 241.903 61.9225H245.75Z" fill="var(--fill-0, #008BFF)" style="fill:#008BFF;fill:color(display-p3 0.0000 0.5451 1.0000);fill-opacity:1;"/>
<path d="M240.851 58.4942C240.386 58.5926 239.909 58.881 239.558 59.2312C239.25 59.5393 239.006 60.081 238.76 60.7797C238.702 60.9454 238.644 61.1219 238.584 61.3025C238.517 61.5029 238.449 61.7084 238.378 61.9098C238.515 61.8969 238.662 61.8807 238.816 61.8602C239.578 61.7587 240.391 61.5644 240.892 61.2303C241.454 60.856 241.928 60.3559 242.151 59.8832C242.26 59.6517 242.297 59.4529 242.281 59.2904C242.267 59.1383 242.204 58.9807 242.042 58.8187C241.701 58.4786 241.294 58.4004 240.851 58.4942Z" fill="var(--fill-0, #008BFF)" style="fill:#008BFF;fill:color(display-p3 0.0000 0.5451 1.0000);fill-opacity:1;"/>
<path d="M235.442 59.2312C235.091 58.881 234.614 58.5926 234.149 58.4942C233.706 58.4004 233.299 58.4786 232.958 58.8187C232.796 58.9807 232.733 59.1383 232.719 59.2904C232.703 59.4529 232.74 59.6517 232.849 59.8832C233.072 60.3559 233.546 60.856 234.108 61.2303C234.609 61.5644 235.422 61.7587 236.184 61.8602C236.338 61.8807 236.485 61.8969 236.622 61.9098C236.551 61.7084 236.483 61.5029 236.416 61.3025C236.356 61.1219 236.298 60.9454 236.24 60.7797C235.994 60.081 235.75 59.5393 235.442 59.2312Z" fill="var(--fill-0, #008BFF)" style="fill:#008BFF;fill:color(display-p3 0.0000 0.5451 1.0000);fill-opacity:1;"/>
<path d="M278.357 31.2714C278.357 28.8512 278.357 27.6411 278.828 26.7167C279.242 25.9036 279.904 25.2425 280.717 24.8281C281.641 24.3571 282.851 24.3571 285.271 24.3571H286.395V29.7452C286.208 29.3633 285.983 29.0033 285.699 28.7196C285.202 28.2228 284.501 27.7807 283.74 27.6197C282.956 27.4538 282.087 27.5878 281.387 28.2878C281.028 28.6463 280.83 29.0694 280.787 29.5224C280.744 29.9644 280.853 30.3925 281.033 30.7743C281.322 31.3887 281.827 31.952 282.388 32.395H278.357V31.2714Z" fill="var(--fill-0, #008BFF)" style="fill:#008BFF;fill:color(display-p3 0.0000 0.5451 1.0000);fill-opacity:1;"/>
<path d="M278.357 33.605V34.7286C278.357 37.1488 278.357 38.3589 278.828 39.2833C279.242 40.0964 279.904 40.7575 280.717 41.1719C281.641 41.6429 282.851 41.6429 285.271 41.6429H286.395V35.2199C285.204 36.8655 283.724 37.9885 281.933 38.3468C281.605 38.4124 281.287 38.1999 281.221 37.8722C281.155 37.5446 281.368 37.2258 281.696 37.1603C283.376 36.8243 284.825 35.6126 286.005 33.605H278.357Z" fill="var(--fill-0, #008BFF)" style="fill:#008BFF;fill:color(display-p3 0.0000 0.5451 1.0000);fill-opacity:1;"/>
<path d="M287.995 33.605C289.175 35.6126 290.624 36.8243 292.304 37.1603C292.632 37.2258 292.845 37.5446 292.779 37.8722C292.713 38.1999 292.395 38.4124 292.067 38.3468C290.276 37.9885 288.796 36.8655 287.605 35.2199V41.6429H288.729C291.149 41.6429 292.359 41.6429 293.283 41.1719C294.096 40.7575 294.758 40.0964 295.172 39.2833C295.643 38.3589 295.643 37.1488 295.643 34.7286V33.605H287.995Z" fill="var(--fill-0, #008BFF)" style="fill:#008BFF;fill:color(display-p3 0.0000 0.5451 1.0000);fill-opacity:1;"/>
<path d="M295.643 32.395V31.2714C295.643 28.8512 295.643 27.6411 295.172 26.7167C294.758 25.9036 294.096 25.2425 293.283 24.8281C292.359 24.3571 291.149 24.3571 288.729 24.3571H287.605V29.7452C287.792 29.3633 288.017 29.0033 288.301 28.7196C288.798 28.2228 289.499 27.7807 290.26 27.6197C291.044 27.4538 291.913 27.5878 292.613 28.2878C292.972 28.6463 293.17 29.0694 293.213 29.5224C293.256 29.9644 293.147 30.3925 292.967 30.7743C292.678 31.3887 292.173 31.952 291.612 32.395H295.643Z" fill="var(--fill-0, #008BFF)" style="fill:#008BFF;fill:color(display-p3 0.0000 0.5451 1.0000);fill-opacity:1;"/>
<path d="M290.51 28.8035C290.023 28.9066 289.523 29.2086 289.156 29.5755C288.833 29.8983 288.577 30.4658 288.32 31.1978C288.26 31.3714 288.198 31.5563 288.135 31.7455C288.066 31.9554 287.994 32.1707 287.919 32.3817C288.063 32.3682 288.218 32.3512 288.379 32.3298C289.176 32.2234 290.029 32.0199 290.554 31.6699C291.142 31.2777 291.639 30.7538 291.873 30.2586C291.987 30.0161 292.025 29.8078 292.009 29.6375C291.994 29.4782 291.928 29.3131 291.758 29.1434C291.402 28.7871 290.975 28.7052 290.51 28.8035Z" fill="var(--fill-0, #008BFF)" style="fill:#008BFF;fill:color(display-p3 0.0000 0.5451 1.0000);fill-opacity:1;"/>
<path d="M284.844 29.5755C284.477 29.2086 283.977 28.9066 283.49 28.8035C283.025 28.7052 282.598 28.7871 282.242 29.1434C282.072 29.3131 282.006 29.4782 281.991 29.6375C281.975 29.8078 282.013 30.0161 282.127 30.2586C282.361 30.7538 282.858 31.2777 283.446 31.6699C283.971 32.0199 284.824 32.2234 285.621 32.3298C285.782 32.3512 285.937 32.3682 286.08 32.3817C286.006 32.1707 285.934 31.9555 285.865 31.7455C285.802 31.5563 285.74 31.3714 285.68 31.1978C285.423 30.4658 285.167 29.8983 284.844 29.5755Z" fill="var(--fill-0, #008BFF)" style="fill:#008BFF;fill:color(display-p3 0.0000 0.5451 1.0000);fill-opacity:1;"/>
<path d="M266.464 97.6929C266.464 95.1626 266.464 93.8975 266.957 92.9311C267.39 92.081 268.081 91.3898 268.931 90.9567C269.898 90.4643 271.163 90.4643 273.693 90.4643H274.868V96.0972C274.672 95.698 274.437 95.3216 274.14 95.0251C273.62 94.5057 272.888 94.0435 272.092 93.8751C271.273 93.7017 270.363 93.8418 269.631 94.5736C269.257 94.9484 269.049 95.3908 269.004 95.8643C268.96 96.3264 269.074 96.774 269.262 97.1731C269.564 97.8154 270.092 98.4044 270.678 98.8675H266.464V97.6929Z" fill="var(--fill-0, #008BFF)" style="fill:#008BFF;fill:color(display-p3 0.0000 0.5451 1.0000);fill-opacity:1;"/>
<path d="M266.464 100.132V101.307C266.464 103.837 266.464 105.103 266.957 106.069C267.39 106.919 268.081 107.61 268.931 108.043C269.898 108.536 271.163 108.536 273.693 108.536H274.868V101.821C273.623 103.541 272.076 104.715 270.203 105.09C269.86 105.158 269.527 104.936 269.458 104.594C269.39 104.251 269.612 103.918 269.955 103.849C271.711 103.498 273.226 102.231 274.46 100.132H266.464Z" fill="var(--fill-0, #008BFF)" style="fill:#008BFF;fill:color(display-p3 0.0000 0.5451 1.0000);fill-opacity:1;"/>
<path d="M276.54 100.132C277.774 102.231 279.289 103.498 281.045 103.849C281.388 103.918 281.61 104.251 281.542 104.594C281.473 104.936 281.14 105.158 280.797 105.09C278.924 104.715 277.377 103.541 276.132 101.821V108.536H277.307C279.837 108.536 281.103 108.536 282.069 108.043C282.919 107.61 283.61 106.919 284.043 106.069C284.536 105.103 284.536 103.837 284.536 101.307V100.132H276.54Z" fill="var(--fill-0, #008BFF)" style="fill:#008BFF;fill:color(display-p3 0.0000 0.5451 1.0000);fill-opacity:1;"/>
<path d="M284.536 98.8675V97.6929C284.536 95.1626 284.536 93.8975 284.043 92.9311C283.61 92.081 282.919 91.3898 282.069 90.9567C281.103 90.4643 279.837 90.4643 277.307 90.4643H276.132V96.0972C276.328 95.698 276.563 95.3216 276.86 95.0251C277.38 94.5057 278.112 94.0435 278.908 93.8751C279.727 93.7017 280.637 93.8418 281.369 94.5736C281.743 94.9484 281.951 95.3908 281.996 95.8643C282.04 96.3264 281.926 96.774 281.738 97.1731C281.436 97.8154 280.908 98.4044 280.322 98.8675H284.536Z" fill="var(--fill-0, #008BFF)" style="fill:#008BFF;fill:color(display-p3 0.0000 0.5451 1.0000);fill-opacity:1;"/>
<path d="M279.17 95.1127C278.66 95.2205 278.138 95.5363 277.754 95.9199C277.417 96.2573 277.149 96.8507 276.88 97.6159C276.817 97.7974 276.753 97.9907 276.687 98.1885C276.614 98.4079 276.539 98.633 276.461 98.8535C276.611 98.8395 276.773 98.8217 276.941 98.7993C277.775 98.6881 278.666 98.4753 279.215 98.1094C279.83 97.6994 280.35 97.1517 280.594 96.634C280.713 96.3805 280.754 96.1627 280.737 95.9847C280.721 95.8181 280.652 95.6455 280.474 95.4681C280.102 95.0956 279.656 95.0099 279.17 95.1127Z" fill="var(--fill-0, #008BFF)" style="fill:#008BFF;fill:color(display-p3 0.0000 0.5451 1.0000);fill-opacity:1;"/>
<path d="M273.246 95.9199C272.862 95.5363 272.34 95.2205 271.83 95.1127C271.344 95.0099 270.898 95.0956 270.526 95.4681C270.348 95.6455 270.279 95.8181 270.263 95.9847C270.246 96.1627 270.287 96.3805 270.406 96.634C270.65 97.1517 271.17 97.6994 271.785 98.1094C272.334 98.4753 273.225 98.6881 274.059 98.7993C274.227 98.8217 274.389 98.8395 274.539 98.8535C274.461 98.633 274.386 98.408 274.313 98.1885C274.247 97.9907 274.183 97.7974 274.119 97.6159C273.851 96.8507 273.583 96.2573 273.246 95.9199Z" fill="var(--fill-0, #008BFF)" style="fill:#008BFF;fill:color(display-p3 0.0000 0.5451 1.0000);fill-opacity:1;"/>
<path d="M226.107 133.221C226.107 130.031 226.107 128.436 226.728 127.217C227.274 126.146 228.146 125.274 229.217 124.728C230.436 124.107 232.031 124.107 235.221 124.107H236.703V131.21C236.457 130.706 236.159 130.232 235.785 129.858C235.13 129.203 234.206 128.62 233.203 128.408C232.17 128.189 231.023 128.366 230.1 129.288C229.628 129.761 229.367 130.319 229.31 130.916C229.254 131.499 229.397 132.063 229.634 132.566C230.016 133.376 230.681 134.119 231.42 134.702H226.107V133.221Z" fill="var(--fill-0, #008BFF)" style="fill:#008BFF;fill:color(display-p3 0.0000 0.5451 1.0000);fill-opacity:1;"/>
<path d="M226.107 136.298V137.779C226.107 140.969 226.107 142.564 226.728 143.783C227.274 144.854 228.146 145.726 229.217 146.272C230.436 146.893 232.031 146.893 235.221 146.893H236.703V138.426C235.133 140.595 233.182 142.076 230.821 142.548C230.389 142.634 229.969 142.354 229.882 141.922C229.796 141.491 230.076 141.07 230.508 140.984C232.722 140.541 234.633 138.944 236.188 136.298H226.107Z" fill="var(--fill-0, #008BFF)" style="fill:#008BFF;fill:color(display-p3 0.0000 0.5451 1.0000);fill-opacity:1;"/>
<path d="M238.812 136.298C240.367 138.944 242.278 140.541 244.492 140.984C244.924 141.07 245.204 141.491 245.118 141.922C245.031 142.354 244.611 142.634 244.179 142.548C241.818 142.076 239.867 140.595 238.298 138.426V146.893H239.779C242.969 146.893 244.564 146.893 245.783 146.272C246.854 145.726 247.726 144.854 248.272 143.783C248.893 142.564 248.893 140.969 248.893 137.779V136.298H238.812Z" fill="var(--fill-0, #008BFF)" style="fill:#008BFF;fill:color(display-p3 0.0000 0.5451 1.0000);fill-opacity:1;"/>
<path d="M248.893 134.702V133.221C248.893 130.031 248.893 128.436 248.272 127.217C247.726 126.146 246.854 125.274 245.783 124.728C244.564 124.107 242.969 124.107 239.779 124.107H238.298V131.21C238.543 130.706 238.841 130.232 239.215 129.858C239.87 129.203 240.794 128.62 241.797 128.408C242.83 128.189 243.977 128.366 244.9 129.288C245.372 129.761 245.633 130.319 245.69 130.916C245.746 131.499 245.603 132.063 245.366 132.566C244.984 133.376 244.319 134.119 243.58 134.702H248.893Z" fill="var(--fill-0, #008BFF)" style="fill:#008BFF;fill:color(display-p3 0.0000 0.5451 1.0000);fill-opacity:1;"/>
<path d="M242.127 129.968C241.485 130.104 240.826 130.502 240.342 130.986C239.917 131.411 239.579 132.16 239.241 133.124C239.16 133.353 239.079 133.597 238.996 133.846C238.905 134.123 238.81 134.407 238.712 134.685C238.901 134.667 239.105 134.645 239.317 134.617C240.369 134.476 241.492 134.208 242.184 133.747C242.96 133.23 243.615 132.539 243.923 131.886C244.073 131.567 244.124 131.292 244.103 131.068C244.083 130.858 243.996 130.64 243.772 130.416C243.302 129.947 242.74 129.839 242.127 129.968Z" fill="var(--fill-0, #008BFF)" style="fill:#008BFF;fill:color(display-p3 0.0000 0.5451 1.0000);fill-opacity:1;"/>
<path d="M234.658 130.986C234.174 130.502 233.515 130.104 232.873 129.968C232.26 129.839 231.698 129.947 231.228 130.416C231.004 130.64 230.917 130.858 230.897 131.068C230.876 131.292 230.927 131.567 231.077 131.886C231.385 132.539 232.04 133.23 232.816 133.747C233.508 134.208 234.631 134.476 235.683 134.617C235.895 134.645 236.099 134.667 236.288 134.685C236.19 134.407 236.095 134.123 236.004 133.846C235.921 133.597 235.84 133.353 235.759 133.124C235.421 132.16 235.083 131.411 234.658 130.986Z" fill="var(--fill-0, #008BFF)" style="fill:#008BFF;fill:color(display-p3 0.0000 0.5451 1.0000);fill-opacity:1;"/>
<path d="M323.107 97.2214C323.107 94.0311 323.107 92.436 323.728 91.2174C324.274 90.1456 325.146 89.2742 326.217 88.728C327.436 88.1071 329.031 88.1071 332.221 88.1071H333.703V95.2095C333.457 94.7062 333.159 94.2316 332.785 93.8577C332.13 93.2028 331.206 92.62 330.203 92.4078C329.17 92.1892 328.023 92.3657 327.1 93.2884C326.628 93.761 326.367 94.3188 326.31 94.9159C326.254 95.4985 326.397 96.0628 326.634 96.5661C327.016 97.3759 327.681 98.1186 328.42 98.7025H323.107V97.2214Z" fill="var(--fill-0, #008BFF)" style="fill:#008BFF;fill:color(display-p3 0.0000 0.5451 1.0000);fill-opacity:1;"/>
<path d="M323.107 100.298V101.779C323.107 104.969 323.107 106.564 323.728 107.783C324.274 108.854 325.146 109.726 326.217 110.272C327.436 110.893 329.031 110.893 332.221 110.893H333.703V102.426C332.133 104.595 330.182 106.076 327.821 106.548C327.389 106.634 326.969 106.354 326.882 105.922C326.796 105.491 327.076 105.07 327.508 104.984C329.722 104.541 331.633 102.944 333.188 100.298H323.107Z" fill="var(--fill-0, #008BFF)" style="fill:#008BFF;fill:color(display-p3 0.0000 0.5451 1.0000);fill-opacity:1;"/>
<path d="M335.812 100.298C337.367 102.944 339.278 104.541 341.492 104.984C341.924 105.07 342.204 105.491 342.118 105.922C342.031 106.354 341.611 106.634 341.179 106.548C338.818 106.076 336.867 104.595 335.298 102.426V110.893H336.779C339.969 110.893 341.564 110.893 342.783 110.272C343.854 109.726 344.726 108.854 345.272 107.783C345.893 106.564 345.893 104.969 345.893 101.779V100.298H335.812Z" fill="var(--fill-0, #008BFF)" style="fill:#008BFF;fill:color(display-p3 0.0000 0.5451 1.0000);fill-opacity:1;"/>
<path d="M345.893 98.7025V97.2214C345.893 94.0311 345.893 92.436 345.272 91.2174C344.726 90.1456 343.854 89.2742 342.783 88.728C341.564 88.1071 339.969 88.1071 336.779 88.1071H335.298V95.2095C335.543 94.7062 335.841 94.2316 336.215 93.8577C336.87 93.2028 337.794 92.62 338.797 92.4078C339.83 92.1892 340.977 92.3657 341.9 93.2884C342.372 93.761 342.633 94.3188 342.69 94.9159C342.746 95.4985 342.603 96.0628 342.366 96.5661C341.984 97.3759 341.319 98.1186 340.58 98.7025H345.893Z" fill="var(--fill-0, #008BFF)" style="fill:#008BFF;fill:color(display-p3 0.0000 0.5451 1.0000);fill-opacity:1;"/>
<path d="M339.127 93.9682C338.485 94.1041 337.826 94.5023 337.342 94.9859C336.917 95.4114 336.579 96.1595 336.241 97.1244C336.16 97.3532 336.079 97.5969 335.996 97.8463C335.905 98.123 335.81 98.4069 335.712 98.6849C335.901 98.6672 336.105 98.6448 336.317 98.6165C337.369 98.4763 338.492 98.208 339.184 97.7467C339.96 97.2297 340.615 96.5391 340.923 95.8864C341.073 95.5667 341.124 95.2922 341.103 95.0677C341.083 94.8576 340.996 94.64 340.772 94.4164C340.302 93.9466 339.74 93.8386 339.127 93.9682Z" fill="var(--fill-0, #008BFF)" style="fill:#008BFF;fill:color(display-p3 0.0000 0.5451 1.0000);fill-opacity:1;"/>
<path d="M331.658 94.9859C331.174 94.5023 330.515 94.1041 329.873 93.9682C329.26 93.8386 328.698 93.9466 328.228 94.4164C328.004 94.64 327.917 94.8576 327.897 95.0677C327.876 95.2922 327.927 95.5667 328.077 95.8864C328.385 96.5391 329.04 97.2297 329.816 97.7467C330.508 98.208 331.631 98.4763 332.683 98.6165C332.895 98.6448 333.099 98.6672 333.288 98.6849C333.19 98.4068 333.095 98.1231 333.004 97.8463C332.921 97.5969 332.84 97.3532 332.759 97.1244C332.421 96.1595 332.083 95.4114 331.658 94.9859Z" fill="var(--fill-0, #008BFF)" style="fill:#008BFF;fill:color(display-p3 0.0000 0.5451 1.0000);fill-opacity:1;"/>
<path d="M277.679 163.536C277.679 160.785 277.679 159.41 278.214 158.36C278.685 157.436 279.436 156.685 280.36 156.214C281.41 155.679 282.785 155.679 285.536 155.679H286.812V161.801C286.6 161.367 286.344 160.958 286.022 160.636C285.457 160.071 284.661 159.569 283.796 159.386C282.905 159.198 281.917 159.35 281.121 160.145C280.714 160.553 280.489 161.033 280.439 161.548C280.391 162.05 280.515 162.537 280.719 162.971C281.048 163.669 281.622 164.309 282.259 164.812H277.679V163.536Z" fill="var(--fill-0, #008BFF)" style="fill:#008BFF;fill:color(display-p3 0.0000 0.5451 1.0000);fill-opacity:1;"/>
<path d="M277.679 166.188V167.464C277.679 170.215 277.679 171.59 278.214 172.64C278.685 173.564 279.436 174.315 280.36 174.786C281.41 175.321 282.785 175.321 285.536 175.321H286.812V168.023C285.459 169.893 283.778 171.169 281.742 171.576C281.37 171.65 281.007 171.409 280.933 171.037C280.859 170.664 281.1 170.302 281.472 170.228C283.381 169.846 285.028 168.469 286.369 166.188H277.679Z" fill="var(--fill-0, #008BFF)" style="fill:#008BFF;fill:color(display-p3 0.0000 0.5451 1.0000);fill-opacity:1;"/>
<path d="M288.631 166.188C289.972 168.469 291.619 169.846 293.528 170.228C293.9 170.302 294.141 170.664 294.067 171.037C293.993 171.409 293.63 171.65 293.258 171.576C291.222 171.169 289.541 169.893 288.187 168.023V175.321H289.464C292.215 175.321 293.59 175.321 294.64 174.786C295.564 174.315 296.315 173.564 296.786 172.64C297.321 171.59 297.321 170.215 297.321 167.464V166.188H288.631Z" fill="var(--fill-0, #008BFF)" style="fill:#008BFF;fill:color(display-p3 0.0000 0.5451 1.0000);fill-opacity:1;"/>
<path d="M297.321 164.812V163.536C297.321 160.785 297.321 159.41 296.786 158.36C296.315 157.436 295.564 156.685 294.64 156.214C293.59 155.679 292.215 155.679 289.464 155.679H288.187V161.801C288.4 161.367 288.656 160.958 288.978 160.636C289.543 160.071 290.339 159.569 291.204 159.386C292.095 159.198 293.083 159.35 293.879 160.145C294.286 160.553 294.511 161.033 294.561 161.548C294.609 162.05 294.485 162.537 294.281 162.971C293.952 163.669 293.378 164.309 292.741 164.812H297.321Z" fill="var(--fill-0, #008BFF)" style="fill:#008BFF;fill:color(display-p3 0.0000 0.5451 1.0000);fill-opacity:1;"/>
<path d="M291.489 160.731C290.935 160.848 290.367 161.192 289.95 161.609C289.583 161.975 289.292 162.62 289.001 163.452C288.931 163.649 288.862 163.859 288.79 164.074C288.711 164.313 288.63 164.558 288.545 164.797C288.708 164.782 288.884 164.763 289.067 164.738C289.973 164.617 290.942 164.386 291.538 163.989C292.207 163.543 292.772 162.948 293.037 162.385C293.167 162.109 293.21 161.873 293.192 161.679C293.175 161.498 293.1 161.31 292.907 161.118C292.502 160.713 292.017 160.62 291.489 160.731Z" fill="var(--fill-0, #008BFF)" style="fill:#008BFF;fill:color(display-p3 0.0000 0.5451 1.0000);fill-opacity:1;"/>
<path d="M285.05 161.609C284.633 161.192 284.065 160.848 283.511 160.731C282.983 160.62 282.498 160.713 282.093 161.118C281.9 161.31 281.825 161.498 281.808 161.679C281.79 161.873 281.833 162.109 281.963 162.385C282.228 162.948 282.793 163.543 283.462 163.989C284.058 164.386 285.027 164.617 285.933 164.738C286.116 164.763 286.292 164.782 286.455 164.797C286.37 164.558 286.289 164.313 286.21 164.074C286.138 163.859 286.069 163.649 285.999 163.452C285.708 162.62 285.417 161.975 285.05 161.609Z" fill="var(--fill-0, #008BFF)" style="fill:#008BFF;fill:color(display-p3 0.0000 0.5451 1.0000);fill-opacity:1;"/>
<path d="M215.679 186.536C215.679 183.785 215.679 182.41 216.214 181.36C216.685 180.436 217.436 179.685 218.36 179.214C219.41 178.679 220.785 178.679 223.536 178.679H224.813V184.801C224.6 184.367 224.344 183.958 224.022 183.636C223.457 183.071 222.661 182.569 221.796 182.386C220.905 182.198 219.917 182.35 219.121 183.145C218.714 183.553 218.489 184.033 218.439 184.548C218.391 185.05 218.515 185.537 218.719 185.971C219.048 186.669 219.622 187.309 220.259 187.812H215.679V186.536Z" fill="var(--fill-0, #008BFF)" style="fill:#008BFF;fill:color(display-p3 0.0000 0.5451 1.0000);fill-opacity:1;"/>
<path d="M215.679 189.188V190.464C215.679 193.215 215.679 194.59 216.214 195.64C216.685 196.564 217.436 197.315 218.36 197.786C219.41 198.321 220.785 198.321 223.536 198.321H224.813V191.023C223.459 192.893 221.778 194.169 219.742 194.576C219.37 194.65 219.007 194.409 218.933 194.037C218.859 193.664 219.1 193.302 219.472 193.228C221.381 192.846 223.028 191.469 224.369 189.188H215.679Z" fill="var(--fill-0, #008BFF)" style="fill:#008BFF;fill:color(display-p3 0.0000 0.5451 1.0000);fill-opacity:1;"/>
<path d="M226.631 189.188C227.972 191.469 229.619 192.846 231.528 193.228C231.9 193.302 232.141 193.664 232.067 194.037C231.993 194.409 231.63 194.65 231.258 194.576C229.222 194.169 227.541 192.893 226.188 191.023V198.321H227.464C230.215 198.321 231.59 198.321 232.64 197.786C233.564 197.315 234.315 196.564 234.786 195.64C235.321 194.59 235.321 193.215 235.321 190.464V189.188H226.631Z" fill="var(--fill-0, #008BFF)" style="fill:#008BFF;fill:color(display-p3 0.0000 0.5451 1.0000);fill-opacity:1;"/>
<path d="M235.321 187.812V186.536C235.321 183.785 235.321 182.41 234.786 181.36C234.315 180.436 233.564 179.685 232.64 179.214C231.59 178.679 230.215 178.679 227.464 178.679H226.188V184.801C226.4 184.367 226.656 183.958 226.978 183.636C227.543 183.071 228.339 182.569 229.204 182.386C230.095 182.198 231.083 182.35 231.879 183.145C232.286 183.553 232.511 184.033 232.561 184.548C232.609 185.05 232.485 185.537 232.281 185.971C231.952 186.669 231.378 187.309 230.741 187.812H235.321Z" fill="var(--fill-0, #008BFF)" style="fill:#008BFF;fill:color(display-p3 0.0000 0.5451 1.0000);fill-opacity:1;"/>
<path d="M229.489 183.731C228.935 183.848 228.367 184.192 227.95 184.609C227.583 184.975 227.292 185.62 227.001 186.452C226.931 186.649 226.862 186.859 226.79 187.074C226.711 187.313 226.63 187.558 226.545 187.797C226.708 187.782 226.884 187.763 227.067 187.738C227.973 187.617 228.942 187.386 229.538 186.989C230.207 186.543 230.772 185.948 231.037 185.385C231.167 185.109 231.21 184.873 231.192 184.679C231.175 184.498 231.1 184.31 230.907 184.118C230.502 183.713 230.017 183.62 229.489 183.731Z" fill="var(--fill-0, #008BFF)" style="fill:#008BFF;fill:color(display-p3 0.0000 0.5451 1.0000);fill-opacity:1;"/>
<path d="M223.05 184.609C222.633 184.192 222.065 183.848 221.511 183.731C220.983 183.62 220.498 183.713 220.093 184.118C219.9 184.31 219.825 184.498 219.808 184.679C219.79 184.873 219.833 185.109 219.963 185.385C220.228 185.948 220.793 186.543 221.462 186.989C222.058 187.386 223.027 187.617 223.933 187.738C224.116 187.763 224.292 187.782 224.455 187.797C224.37 187.558 224.289 187.313 224.21 187.074C224.138 186.859 224.069 186.649 223.999 186.452C223.708 185.62 223.417 184.975 223.05 184.609Z" fill="var(--fill-0, #008BFF)" style="fill:#008BFF;fill:color(display-p3 0.0000 0.5451 1.0000);fill-opacity:1;"/>
<path d="M164.571 172.114C164.571 169.474 164.571 168.154 165.085 167.145C165.537 166.258 166.258 165.537 167.145 165.085C168.154 164.571 169.474 164.571 172.114 164.571H173.34V170.449C173.136 170.033 172.89 169.64 172.581 169.331C172.038 168.789 171.274 168.306 170.444 168.131C169.589 167.95 168.64 168.096 167.876 168.859C167.485 169.25 167.269 169.712 167.222 170.206C167.176 170.688 167.294 171.155 167.49 171.572C167.806 172.242 168.357 172.857 168.968 173.34H164.571V172.114Z" fill="var(--fill-0, #008BFF)" style="fill:#008BFF;fill:color(display-p3 0.0000 0.5451 1.0000);fill-opacity:1;"/>
<path d="M164.571 174.66V175.886C164.571 178.526 164.571 179.846 165.085 180.855C165.537 181.742 166.258 182.463 167.145 182.915C168.154 183.429 169.474 183.429 172.114 183.429H173.34V176.422C172.041 178.217 170.427 179.442 168.472 179.833C168.115 179.904 167.767 179.673 167.696 179.315C167.624 178.958 167.856 178.61 168.213 178.539C170.046 178.172 171.627 176.85 172.914 174.66H164.571Z" fill="var(--fill-0, #008BFF)" style="fill:#008BFF;fill:color(display-p3 0.0000 0.5451 1.0000);fill-opacity:1;"/>
<path d="M175.086 174.66C176.373 176.85 177.954 178.172 179.787 178.539C180.144 178.61 180.376 178.958 180.304 179.315C180.233 179.673 179.885 179.904 179.528 179.833C177.573 179.442 175.959 178.217 174.66 176.422V183.429H175.886C178.526 183.429 179.846 183.429 180.855 182.915C181.742 182.463 182.463 181.742 182.915 180.855C183.429 179.846 183.429 178.526 183.429 175.886V174.66H175.086Z" fill="var(--fill-0, #008BFF)" style="fill:#008BFF;fill:color(display-p3 0.0000 0.5451 1.0000);fill-opacity:1;"/>
<path d="M183.429 173.34V172.114C183.429 169.474 183.429 168.154 182.915 167.145C182.463 166.258 181.742 165.537 180.855 165.085C179.846 164.571 178.526 164.571 175.886 164.571H174.66V170.449C174.864 170.033 175.11 169.64 175.419 169.331C175.962 168.789 176.726 168.306 177.556 168.131C178.411 167.95 179.36 168.096 180.124 168.859C180.515 169.25 180.731 169.712 180.778 170.206C180.824 170.688 180.706 171.155 180.51 171.572C180.194 172.242 179.643 172.857 179.032 173.34H183.429Z" fill="var(--fill-0, #008BFF)" style="fill:#008BFF;fill:color(display-p3 0.0000 0.5451 1.0000);fill-opacity:1;"/>
<path d="M177.829 169.422C177.298 169.534 176.753 169.864 176.352 170.264C176 170.616 175.721 171.235 175.441 172.034C175.374 172.223 175.307 172.425 175.238 172.631C175.162 172.86 175.084 173.095 175.003 173.325C175.16 173.311 175.328 173.292 175.504 173.269C176.374 173.153 177.304 172.931 177.877 172.549C178.519 172.121 179.061 171.55 179.315 171.009C179.44 170.745 179.482 170.518 179.464 170.332C179.448 170.158 179.376 169.978 179.19 169.793C178.802 169.404 178.336 169.315 177.829 169.422Z" fill="var(--fill-0, #008BFF)" style="fill:#008BFF;fill:color(display-p3 0.0000 0.5451 1.0000);fill-opacity:1;"/>
<path d="M171.648 170.264C171.247 169.864 170.702 169.534 170.171 169.422C169.664 169.315 169.198 169.404 168.81 169.793C168.624 169.978 168.552 170.158 168.536 170.332C168.518 170.518 168.56 170.745 168.685 171.009C168.939 171.55 169.481 172.121 170.123 172.549C170.696 172.931 171.626 173.153 172.496 173.269C172.672 173.292 172.84 173.311 172.997 173.325C172.916 173.095 172.838 172.86 172.762 172.631C172.693 172.425 172.626 172.223 172.559 172.034C172.279 171.235 172 170.616 171.648 170.264Z" fill="var(--fill-0, #008BFF)" style="fill:#008BFF;fill:color(display-p3 0.0000 0.5451 1.0000);fill-opacity:1;"/>
<path d="M109.214 185.643C109.214 182.343 109.214 180.692 109.857 179.432C110.422 178.323 111.323 177.422 112.432 176.857C113.692 176.214 115.343 176.214 118.643 176.214H120.175V183.562C119.921 183.041 119.613 182.55 119.226 182.163C118.548 181.486 117.593 180.883 116.555 180.663C115.486 180.437 114.3 180.62 113.345 181.574C112.856 182.063 112.586 182.64 112.527 183.258C112.47 183.861 112.618 184.444 112.863 184.965C113.258 185.803 113.946 186.571 114.71 187.175H109.214V185.643Z" fill="var(--fill-0, #008BFF)" style="fill:#008BFF;fill:color(display-p3 0.0000 0.5451 1.0000);fill-opacity:1;"/>
<path d="M109.214 188.825V190.357C109.214 193.657 109.214 195.308 109.857 196.568C110.422 197.677 111.323 198.578 112.432 199.143C113.692 199.786 115.343 199.786 118.643 199.786H120.175V191.027C118.551 193.271 116.533 194.803 114.09 195.291C113.644 195.38 113.209 195.091 113.12 194.644C113.03 194.197 113.32 193.763 113.767 193.673C116.058 193.215 118.034 191.563 119.643 188.825H109.214Z" fill="var(--fill-0, #008BFF)" style="fill:#008BFF;fill:color(display-p3 0.0000 0.5451 1.0000);fill-opacity:1;"/>
<path d="M122.357 188.825C123.966 191.563 125.942 193.215 128.233 193.673C128.68 193.763 128.97 194.197 128.88 194.644C128.791 195.091 128.356 195.38 127.91 195.291C125.467 194.803 123.449 193.271 121.825 191.027V199.786H123.357C126.657 199.786 128.308 199.786 129.568 199.143C130.677 198.578 131.578 197.677 132.143 196.568C132.786 195.308 132.786 193.657 132.786 190.357V188.825H122.357Z" fill="var(--fill-0, #008BFF)" style="fill:#008BFF;fill:color(display-p3 0.0000 0.5451 1.0000);fill-opacity:1;"/>
<path d="M132.786 187.175V185.643C132.786 182.343 132.786 180.692 132.143 179.432C131.578 178.323 130.677 177.422 129.568 176.857C128.308 176.214 126.657 176.214 123.357 176.214H121.825V183.562C122.079 183.041 122.387 182.55 122.774 182.163C123.452 181.486 124.407 180.883 125.445 180.663C126.514 180.437 127.7 180.62 128.655 181.574C129.144 182.063 129.414 182.64 129.473 183.258C129.53 183.861 129.382 184.444 129.137 184.965C128.742 185.803 128.054 186.571 127.29 187.175H132.786Z" fill="var(--fill-0, #008BFF)" style="fill:#008BFF;fill:color(display-p3 0.0000 0.5451 1.0000);fill-opacity:1;"/>
<path d="M125.787 182.277C125.122 182.418 124.441 182.83 123.94 183.33C123.5 183.77 123.151 184.544 122.801 185.542C122.718 185.779 122.634 186.031 122.548 186.289C122.453 186.576 122.355 186.869 122.254 187.157C122.45 187.138 122.66 187.115 122.88 187.086C123.968 186.941 125.13 186.663 125.846 186.186C126.648 185.651 127.326 184.937 127.644 184.262C127.8 183.931 127.853 183.647 127.83 183.415C127.81 183.198 127.72 182.972 127.488 182.741C127.002 182.255 126.42 182.143 125.787 182.277Z" fill="var(--fill-0, #008BFF)" style="fill:#008BFF;fill:color(display-p3 0.0000 0.5451 1.0000);fill-opacity:1;"/>
<path d="M118.06 183.33C117.559 182.83 116.878 182.418 116.213 182.277C115.58 182.143 114.998 182.255 114.512 182.741C114.28 182.972 114.19 183.198 114.17 183.415C114.147 183.647 114.2 183.931 114.356 184.262C114.674 184.937 115.352 185.651 116.154 186.186C116.87 186.663 118.032 186.941 119.12 187.086C119.34 187.115 119.55 187.138 119.746 187.157C119.645 186.869 119.547 186.576 119.452 186.289C119.366 186.031 119.282 185.779 119.199 185.542C118.849 184.544 118.5 183.77 118.06 183.33Z" fill="var(--fill-0, #008BFF)" style="fill:#008BFF;fill:color(display-p3 0.0000 0.5451 1.0000);fill-opacity:1;"/>
<path d="M97.2143 133.643C97.2143 130.343 97.2143 128.692 97.8566 127.432C98.4215 126.323 99.323 125.422 100.432 124.857C101.692 124.214 103.343 124.214 106.643 124.214H108.175V131.562C107.921 131.041 107.613 130.55 107.226 130.163C106.548 129.486 105.593 128.883 104.555 128.663C103.486 128.437 102.3 128.62 101.345 129.574C100.856 130.063 100.586 130.64 100.527 131.258C100.47 131.861 100.618 132.444 100.863 132.965C101.258 133.803 101.946 134.571 102.71 135.175H97.2143V133.643Z" fill="var(--fill-0, #008BFF)" style="fill:#008BFF;fill:color(display-p3 0.0000 0.5451 1.0000);fill-opacity:1;"/>
<path d="M97.2143 136.825V138.357C97.2143 141.657 97.2143 143.308 97.8566 144.568C98.4215 145.677 99.323 146.578 100.432 147.143C101.692 147.786 103.343 147.786 106.643 147.786H108.175V139.027C106.551 141.271 104.533 142.803 102.09 143.291C101.644 143.38 101.209 143.091 101.12 142.644C101.03 142.197 101.32 141.763 101.767 141.673C104.058 141.215 106.034 139.563 107.643 136.825H97.2143Z" fill="var(--fill-0, #008BFF)" style="fill:#008BFF;fill:color(display-p3 0.0000 0.5451 1.0000);fill-opacity:1;"/>
<path d="M110.357 136.825C111.966 139.563 113.942 141.215 116.233 141.673C116.68 141.763 116.97 142.197 116.88 142.644C116.791 143.091 116.356 143.38 115.91 143.291C113.467 142.803 111.449 141.271 109.825 139.027V147.786H111.357C114.657 147.786 116.308 147.786 117.568 147.143C118.677 146.578 119.578 145.677 120.143 144.568C120.786 143.308 120.786 141.657 120.786 138.357V136.825H110.357Z" fill="var(--fill-0, #008BFF)" style="fill:#008BFF;fill:color(display-p3 0.0000 0.5451 1.0000);fill-opacity:1;"/>
<path d="M120.786 135.175V133.643C120.786 130.343 120.786 128.692 120.143 127.432C119.578 126.323 118.677 125.422 117.568 124.857C116.308 124.214 114.657 124.214 111.357 124.214H109.825V131.562C110.079 131.041 110.387 130.55 110.774 130.163C111.452 129.486 112.407 128.883 113.445 128.663C114.514 128.437 115.7 128.62 116.655 129.574C117.144 130.063 117.414 130.64 117.473 131.258C117.53 131.861 117.382 132.444 117.137 132.965C116.742 133.803 116.054 134.571 115.29 135.175H120.786Z" fill="var(--fill-0, #008BFF)" style="fill:#008BFF;fill:color(display-p3 0.0000 0.5451 1.0000);fill-opacity:1;"/>
<path d="M113.787 130.277C113.122 130.418 112.441 130.83 111.94 131.33C111.5 131.77 111.151 132.544 110.801 133.542C110.718 133.779 110.634 134.031 110.548 134.289C110.453 134.576 110.355 134.869 110.254 135.157C110.45 135.138 110.66 135.115 110.88 135.086C111.968 134.941 113.13 134.663 113.846 134.186C114.648 133.651 115.326 132.937 115.644 132.262C115.8 131.931 115.853 131.647 115.83 131.415C115.81 131.198 115.72 130.972 115.488 130.741C115.002 130.255 114.42 130.143 113.787 130.277Z" fill="var(--fill-0, #008BFF)" style="fill:#008BFF;fill:color(display-p3 0.0000 0.5451 1.0000);fill-opacity:1;"/>
<path d="M106.06 131.33C105.559 130.83 104.878 130.418 104.213 130.277C103.58 130.143 102.998 130.255 102.512 130.741C102.28 130.972 102.19 131.198 102.17 131.415C102.147 131.647 102.2 131.931 102.356 132.262C102.674 132.937 103.352 133.651 104.154 134.186C104.87 134.663 106.032 134.941 107.12 135.086C107.34 135.115 107.55 135.138 107.746 135.157C107.645 134.869 107.547 134.576 107.452 134.289C107.366 134.031 107.282 133.779 107.199 133.542C106.849 132.544 106.5 131.77 106.06 131.33Z" fill="var(--fill-0, #008BFF)" style="fill:#008BFF;fill:color(display-p3 0.0000 0.5451 1.0000);fill-opacity:1;"/>
<path d="M48.8929 163.379C48.8929 160.408 48.8929 158.923 49.4709 157.789C49.9794 156.791 50.7907 155.979 51.7887 155.471C52.9232 154.893 54.4083 154.893 57.3786 154.893H58.7575V161.505C58.5285 161.037 58.2518 160.595 57.9034 160.247C57.2933 159.637 56.4334 159.095 55.4993 158.897C54.5374 158.693 53.4699 158.858 52.6107 159.717C52.1707 160.157 51.9276 160.676 51.8744 161.232C51.8226 161.774 51.9559 162.3 52.1767 162.768C52.5319 163.522 53.1516 164.214 53.8394 164.757H48.8929V163.379Z" fill="var(--fill-0, #008BFF)" style="fill:#008BFF;fill:color(display-p3 0.0000 0.5451 1.0000);fill-opacity:1;"/>
<path d="M48.8929 166.242V167.621C48.8929 170.592 48.8929 172.077 49.4709 173.211C49.9794 174.209 50.7907 175.021 51.7887 175.529C52.9232 176.107 54.4083 176.107 57.3786 176.107H58.7575V168.224C57.2961 170.244 55.48 171.622 53.2813 172.062C52.8792 172.142 52.4881 171.882 52.4076 171.48C52.3272 171.077 52.588 170.686 52.9901 170.606C55.0519 170.193 56.8305 168.706 58.2787 166.242H48.8929Z" fill="var(--fill-0, #008BFF)" style="fill:#008BFF;fill:color(display-p3 0.0000 0.5451 1.0000);fill-opacity:1;"/>
<path d="M60.7213 166.242C62.1695 168.706 63.9481 170.193 66.0099 170.606C66.412 170.686 66.6728 171.077 66.5924 171.48C66.5119 171.882 66.1208 172.142 65.7187 172.062C63.52 171.622 61.7039 170.244 60.2425 168.224V176.107H61.6214C64.5917 176.107 66.0768 176.107 67.2113 175.529C68.2093 175.021 69.0206 174.209 69.5291 173.211C70.1071 172.077 70.1071 170.592 70.1071 167.621V166.242H60.7213Z" fill="var(--fill-0, #008BFF)" style="fill:#008BFF;fill:color(display-p3 0.0000 0.5451 1.0000);fill-opacity:1;"/>
<path d="M70.1071 164.757V163.379C70.1071 160.408 70.1071 158.923 69.5291 157.789C69.0206 156.791 68.2093 155.979 67.2113 155.471C66.0768 154.893 64.5917 154.893 61.6214 154.893H60.2425V161.505C60.4715 161.037 60.7482 160.595 61.0966 160.247C61.7067 159.637 62.5666 159.095 63.5007 158.897C64.4626 158.693 65.5301 158.858 66.3893 159.717C66.8293 160.157 67.0724 160.676 67.1256 161.232C67.1774 161.774 67.0441 162.3 66.8233 162.768C66.4681 163.522 65.8484 164.214 65.1606 164.757H70.1071Z" fill="var(--fill-0, #008BFF)" style="fill:#008BFF;fill:color(display-p3 0.0000 0.5451 1.0000);fill-opacity:1;"/>
<path d="M63.8081 160.35C63.2101 160.476 62.5968 160.847 62.1463 161.297C61.7499 161.693 61.4357 162.39 61.1206 163.288C61.0458 163.501 60.9704 163.728 60.8933 163.96C60.8077 164.218 60.7199 164.482 60.6285 164.741C60.8047 164.725 60.9943 164.704 61.1919 164.677C62.1711 164.547 63.217 164.297 63.8613 163.868C64.5833 163.386 65.1936 162.743 65.4799 162.136C65.6201 161.838 65.6673 161.582 65.6473 161.373C65.6286 161.178 65.5476 160.975 65.3393 160.767C64.9019 160.33 64.3783 160.229 63.8081 160.35Z" fill="var(--fill-0, #008BFF)" style="fill:#008BFF;fill:color(display-p3 0.0000 0.5451 1.0000);fill-opacity:1;"/>
<path d="M56.8537 161.297C56.4032 160.847 55.7899 160.476 55.1919 160.35C54.6217 160.229 54.0981 160.33 53.6607 160.767C53.4524 160.975 53.3714 161.178 53.3527 161.373C53.3327 161.582 53.3799 161.838 53.5201 162.136C53.8064 162.743 54.4167 163.386 55.1387 163.868C55.783 164.297 56.8289 164.547 57.8081 164.677C58.0057 164.704 58.1953 164.725 58.3715 164.741C58.2801 164.482 58.1923 164.218 58.1067 163.96C58.0296 163.728 57.9542 163.501 57.8794 163.288C57.5643 162.39 57.2501 161.693 56.8537 161.297Z" fill="var(--fill-0, #008BFF)" style="fill:#008BFF;fill:color(display-p3 0.0000 0.5451 1.0000);fill-opacity:1;"/>
<path d="M60.5714 97.1143C60.5714 94.474 60.5714 93.1539 61.0853 92.1455C61.5372 91.2584 62.2584 90.5372 63.1455 90.0853C64.1539 89.5714 65.474 89.5714 68.1143 89.5714H69.34V95.4493C69.1364 95.0327 68.8905 94.6399 68.5808 94.3305C68.0385 93.7885 67.2741 93.3062 66.4438 93.1306C65.5888 92.9496 64.6399 93.0958 63.8762 93.8594C63.4851 94.2505 63.269 94.7121 63.2217 95.2063C63.1756 95.6884 63.2942 96.1554 63.4904 96.572C63.8061 97.2422 64.3569 97.8567 64.9683 98.34H60.5714V97.1143Z" fill="var(--fill-0, #008BFF)" style="fill:#008BFF;fill:color(display-p3 0.0000 0.5451 1.0000);fill-opacity:1;"/>
<path d="M60.5714 99.66V100.886C60.5714 103.526 60.5714 104.846 61.0853 105.855C61.5372 106.742 62.2584 107.463 63.1455 107.915C64.1539 108.429 65.474 108.429 68.1143 108.429H69.34V101.422C68.041 103.217 66.4267 104.442 64.4723 104.833C64.1149 104.904 63.7672 104.673 63.6957 104.315C63.6242 103.958 63.856 103.61 64.2134 103.539C66.0462 103.172 67.6271 101.85 68.9144 99.66H60.5714Z" fill="var(--fill-0, #008BFF)" style="fill:#008BFF;fill:color(display-p3 0.0000 0.5451 1.0000);fill-opacity:1;"/>
<path d="M71.0856 99.66C72.3729 101.85 73.9538 103.172 75.7866 103.539C76.144 103.61 76.3758 103.958 76.3043 104.315C76.2328 104.673 75.8851 104.904 75.5277 104.833C73.5733 104.442 71.959 103.217 70.66 101.422V108.429H71.8857C74.526 108.429 75.8461 108.429 76.8545 107.915C77.7416 107.463 78.4628 106.742 78.9147 105.855C79.4286 104.846 79.4286 103.526 79.4286 100.886V99.66H71.0856Z" fill="var(--fill-0, #008BFF)" style="fill:#008BFF;fill:color(display-p3 0.0000 0.5451 1.0000);fill-opacity:1;"/>
<path d="M79.4286 98.34V97.1143C79.4286 94.474 79.4286 93.1539 78.9147 92.1455C78.4628 91.2584 77.7416 90.5372 76.8545 90.0853C75.8461 89.5714 74.526 89.5714 71.8857 89.5714H70.66V95.4493C70.8636 95.0327 71.1095 94.6399 71.4192 94.3305C71.9615 93.7885 72.7259 93.3062 73.5562 93.1306C74.4112 92.9496 75.3601 93.0958 76.1238 93.8594C76.5149 94.2505 76.731 94.7121 76.7783 95.2063C76.8244 95.6884 76.7058 96.1554 76.5096 96.572C76.1939 97.2422 75.6431 97.8567 75.0317 98.34H79.4286Z" fill="var(--fill-0, #008BFF)" style="fill:#008BFF;fill:color(display-p3 0.0000 0.5451 1.0000);fill-opacity:1;"/>
<path d="M73.8294 94.422C73.2978 94.5344 72.7527 94.864 72.3523 95.2642C71.9999 95.6163 71.7206 96.2355 71.4405 97.0339C71.3741 97.2233 71.3071 97.4251 71.2385 97.6315C71.1624 97.8604 71.0843 98.0953 71.0031 98.3254C71.1598 98.3108 71.3283 98.2922 71.5039 98.2688C72.3743 98.1528 73.304 97.9308 73.8768 97.549C74.5185 97.1211 75.061 96.5496 75.3155 96.0094C75.4401 95.7448 75.482 95.5176 75.4643 95.3319C75.4476 95.158 75.3756 94.9779 75.1905 94.7928C74.8017 94.4041 74.3363 94.3147 73.8294 94.422Z" fill="var(--fill-0, #008BFF)" style="fill:#008BFF;fill:color(display-p3 0.0000 0.5451 1.0000);fill-opacity:1;"/>
<path d="M67.6478 95.2642C67.2473 94.864 66.7022 94.5344 66.1706 94.422C65.6637 94.3147 65.1983 94.4041 64.8095 94.7928C64.6244 94.9779 64.5524 95.158 64.5357 95.3319C64.518 95.5176 64.5599 95.7448 64.6845 96.0094C64.939 96.5496 65.4815 97.1211 66.1232 97.549C66.696 97.9308 67.6257 98.1528 68.4961 98.2688C68.6717 98.2922 68.8402 98.3108 68.9969 98.3254C68.9156 98.0953 68.8376 97.8605 68.7615 97.6315C68.693 97.4251 68.6259 97.2233 68.5595 97.0339C68.2793 96.2355 68.0001 95.6163 67.6478 95.2642Z" fill="var(--fill-0, #008BFF)" style="fill:#008BFF;fill:color(display-p3 0.0000 0.5451 1.0000);fill-opacity:1;"/>
<path d="M2.57143 98.1143C2.57143 95.474 2.57143 94.1539 3.08525 93.1455C3.53723 92.2584 4.25842 91.5372 5.14547 91.0853C6.15391 90.5714 7.47404 90.5714 10.1143 90.5714H11.34V96.4493C11.1364 96.0327 10.8905 95.6399 10.5808 95.3305C10.0385 94.7885 9.2741 94.3062 8.44382 94.1306C7.58879 93.9496 6.6399 94.0958 5.8762 94.8594C5.48506 95.2505 5.26897 95.7121 5.22173 96.2063C5.17564 96.6884 5.29417 97.1554 5.49038 97.572C5.8061 98.2422 6.35695 98.8567 6.96834 99.34H2.57143V98.1143Z" fill="var(--fill-0, #008BFF)" style="fill:#008BFF;fill:color(display-p3 0.0000 0.5451 1.0000);fill-opacity:1;"/>
<path d="M2.57143 100.66V101.886C2.57143 104.526 2.57143 105.846 3.08525 106.855C3.53723 107.742 4.25842 108.463 5.14547 108.915C6.15391 109.429 7.47404 109.429 10.1143 109.429H11.34V102.422C10.041 104.217 8.42666 105.442 6.47229 105.833C6.11486 105.904 5.76716 105.673 5.69567 105.315C5.62419 104.958 5.85599 104.61 6.21342 104.539C8.04617 104.172 9.6271 102.85 10.9144 100.66H2.57143Z" fill="var(--fill-0, #008BFF)" style="fill:#008BFF;fill:color(display-p3 0.0000 0.5451 1.0000);fill-opacity:1;"/>
<path d="M13.0856 100.66C14.3729 102.85 15.9538 104.172 17.7866 104.539C18.144 104.61 18.3758 104.958 18.3043 105.315C18.2328 105.673 17.8851 105.904 17.5277 105.833C15.5733 105.442 13.959 104.217 12.66 102.422V109.429H13.8857C16.526 109.429 17.8461 109.429 18.8545 108.915C19.7416 108.463 20.4628 107.742 20.9147 106.855C21.4286 105.846 21.4286 104.526 21.4286 101.886V100.66H13.0856Z" fill="var(--fill-0, #008BFF)" style="fill:#008BFF;fill:color(display-p3 0.0000 0.5451 1.0000);fill-opacity:1;"/>
<path d="M21.4286 99.34V98.1143C21.4286 95.474 21.4286 94.1539 20.9147 93.1455C20.4628 92.2584 19.7416 91.5372 18.8545 91.0853C17.8461 90.5714 16.526 90.5714 13.8857 90.5714H12.66V96.4493C12.8636 96.0327 13.1095 95.6399 13.4192 95.3305C13.9615 94.7885 14.7259 94.3062 15.5562 94.1306C16.4112 93.9496 17.3601 94.0958 18.1238 94.8594C18.5149 95.2505 18.731 95.7121 18.7783 96.2063C18.8244 96.6884 18.7058 97.1554 18.5096 97.572C18.1939 98.2422 17.6431 98.8567 17.0317 99.34H21.4286Z" fill="var(--fill-0, #008BFF)" style="fill:#008BFF;fill:color(display-p3 0.0000 0.5451 1.0000);fill-opacity:1;"/>
<path d="M15.8294 95.422C15.2978 95.5344 14.7527 95.864 14.3522 96.2642C13.9999 96.6163 13.7206 97.2355 13.4405 98.0339C13.3741 98.2233 13.3071 98.4251 13.2385 98.6315C13.1624 98.8604 13.0843 99.0953 13.0031 99.3254C13.1598 99.3108 13.3283 99.2922 13.5039 99.2688C14.3743 99.1528 15.304 98.9308 15.8768 98.549C16.5185 98.1211 17.061 97.5496 17.3155 97.0094C17.4401 96.7448 17.482 96.5176 17.4643 96.3319C17.4476 96.158 17.3756 95.9779 17.1905 95.7928C16.8017 95.4041 16.3363 95.3147 15.8294 95.422Z" fill="var(--fill-0, #008BFF)" style="fill:#008BFF;fill:color(display-p3 0.0000 0.5451 1.0000);fill-opacity:1;"/>
<path d="M9.64775 96.2642C9.24725 95.864 8.70216 95.5344 8.17057 95.422C7.66373 95.3147 7.19833 95.4041 6.80952 95.7928C6.6244 95.9779 6.55236 96.158 6.53574 96.3319C6.51798 96.5176 6.55988 96.7448 6.68452 97.0094C6.93899 97.5496 7.48147 98.1211 8.12325 98.549C8.69599 98.9308 9.62566 99.1528 10.4961 99.2688C10.6717 99.2922 10.8402 99.3108 10.9969 99.3254C10.9156 99.0953 10.8376 98.8605 10.7615 98.6315C10.6929 98.4251 10.6259 98.2233 10.5595 98.0339C10.2794 97.2355 10.0001 96.6163 9.64775 96.2642Z" fill="var(--fill-0, #008BFF)" style="fill:#008BFF;fill:color(display-p3 0.0000 0.5451 1.0000);fill-opacity:1;"/>
<path d="M50.25 32.85C50.25 30.5398 50.25 29.3847 50.6996 28.5023C51.0951 27.7261 51.7261 27.0951 52.5023 26.6996C53.3847 26.25 54.5398 26.25 56.85 26.25H57.9225V31.3931C57.7444 31.0286 57.5291 30.6849 57.2582 30.4142C56.7837 29.9399 56.1148 29.518 55.3883 29.3642C54.6402 29.2059 53.8099 29.3338 53.1417 30.002C52.7994 30.3442 52.6103 30.7481 52.569 31.1805C52.5287 31.6024 52.6324 32.011 52.8041 32.3755C53.0803 32.9619 53.5623 33.4996 54.0973 33.9225H50.25V32.85Z" fill="var(--fill-0, #008BFF)" style="fill:#008BFF;fill:color(display-p3 0.0000 0.5451 1.0000);fill-opacity:1;"/>
<path d="M50.25 35.0775V36.15C50.25 38.4602 50.25 39.6153 50.6996 40.4977C51.0951 41.2739 51.7261 41.9049 52.5023 42.3004C53.3847 42.75 54.5398 42.75 56.85 42.75H57.9225V36.619C56.7859 38.1898 55.3733 39.2618 53.6633 39.6038C53.3505 39.6663 53.0463 39.4635 52.9837 39.1508C52.9212 38.838 53.124 38.5338 53.4367 38.4712C55.0404 38.1505 56.4237 36.9939 57.5501 35.0775H50.25Z" fill="var(--fill-0, #008BFF)" style="fill:#008BFF;fill:color(display-p3 0.0000 0.5451 1.0000);fill-opacity:1;"/>
<path d="M59.4499 35.0775C60.5763 36.9939 61.9596 38.1505 63.5633 38.4712C63.876 38.5338 64.0788 38.838 64.0163 39.1508C63.9537 39.4635 63.6495 39.6663 63.3367 39.6038C61.6267 39.2618 60.2141 38.1898 59.0775 36.619V42.75H60.15C62.4602 42.75 63.6153 42.75 64.4977 42.3004C65.2739 41.9049 65.9049 41.2739 66.3004 40.4977C66.75 39.6153 66.75 38.4602 66.75 36.15V35.0775H59.4499Z" fill="var(--fill-0, #008BFF)" style="fill:#008BFF;fill:color(display-p3 0.0000 0.5451 1.0000);fill-opacity:1;"/>
<path d="M66.75 33.9225V32.85C66.75 30.5398 66.75 29.3847 66.3004 28.5023C65.9049 27.7261 65.2739 27.0951 64.4977 26.6996C63.6153 26.25 62.4602 26.25 60.15 26.25H59.0775V31.3931C59.2556 31.0286 59.4709 30.6849 59.7418 30.4142C60.2163 29.9399 60.8852 29.518 61.6117 29.3642C62.3598 29.2059 63.1901 29.3338 63.8583 30.002C64.2006 30.3442 64.3897 30.7481 64.431 31.1805C64.4713 31.6024 64.3676 32.011 64.1959 32.3755C63.9197 32.9619 63.4377 33.4996 62.9027 33.9225H66.75Z" fill="var(--fill-0, #008BFF)" style="fill:#008BFF;fill:color(display-p3 0.0000 0.5451 1.0000);fill-opacity:1;"/>
<path d="M61.8507 30.4942C61.3856 30.5926 60.9087 30.881 60.5582 31.2312C60.2499 31.5393 60.0056 32.081 59.7605 32.7797C59.7023 32.9454 59.6437 33.1219 59.5837 33.3025C59.5171 33.5029 59.4488 33.7084 59.3777 33.9098C59.5148 33.8969 59.6622 33.8807 59.8159 33.8602C60.5776 33.7587 61.391 33.5644 61.8922 33.2303C62.4537 32.856 62.9284 32.3559 63.151 31.8832C63.2601 31.6517 63.2968 31.4529 63.2812 31.2904C63.2667 31.1383 63.2037 30.9807 63.0417 30.8187C62.7015 30.4786 62.2942 30.4004 61.8507 30.4942Z" fill="var(--fill-0, #008BFF)" style="fill:#008BFF;fill:color(display-p3 0.0000 0.5451 1.0000);fill-opacity:1;"/>
<path d="M56.4418 31.2312C56.0913 30.881 55.6144 30.5926 55.1493 30.4942C54.7058 30.4004 54.2985 30.4786 53.9583 30.8187C53.7963 30.9807 53.7333 31.1383 53.7188 31.2904C53.7032 31.4529 53.7399 31.6517 53.849 31.8832C54.0716 32.3559 54.5463 32.856 55.1078 33.2303C55.609 33.5644 56.4224 33.7587 57.1841 33.8602C57.3378 33.8807 57.4852 33.8969 57.6223 33.9098C57.5512 33.7084 57.4829 33.5029 57.4163 33.3025C57.3563 33.1219 57.2977 32.9454 57.2395 32.7797C56.9944 32.081 56.7501 31.5393 56.4418 31.2312Z" fill="var(--fill-0, #008BFF)" style="fill:#008BFF;fill:color(display-p3 0.0000 0.5451 1.0000);fill-opacity:1;"/>
<path d="M113.25 8.85C113.25 6.53978 113.25 5.38468 113.7 4.50229C114.095 3.72612 114.726 3.09508 115.502 2.6996C116.385 2.25 117.54 2.25 119.85 2.25H120.923V7.39311C120.744 7.02863 120.529 6.68494 120.258 6.4142C119.784 5.93995 119.115 5.51796 118.388 5.36424C117.64 5.20594 116.81 5.33382 116.142 6.00197C115.799 6.34417 115.61 6.74811 115.569 7.18047C115.529 7.60238 115.632 8.011 115.804 8.37546C116.08 8.9619 116.562 9.49964 117.097 9.9225H113.25V8.85Z" fill="var(--fill-0, #008BFF)" style="fill:#008BFF;fill:color(display-p3 0.0000 0.5451 1.0000);fill-opacity:1;"/>
<path d="M113.25 11.0775V12.15C113.25 14.4602 113.25 15.6153 113.7 16.4977C114.095 17.2739 114.726 17.9049 115.502 18.3004C116.385 18.75 117.54 18.75 119.85 18.75H120.923V12.619C119.786 14.1898 118.373 15.2618 116.663 15.6038C116.351 15.6663 116.046 15.4635 115.984 15.1508C115.921 14.838 116.124 14.5338 116.437 14.4712C118.04 14.1505 119.424 12.9939 120.55 11.0775H113.25Z" fill="var(--fill-0, #008BFF)" style="fill:#008BFF;fill:color(display-p3 0.0000 0.5451 1.0000);fill-opacity:1;"/>
<path d="M122.45 11.0775C123.576 12.9939 124.96 14.1505 126.563 14.4712C126.876 14.5338 127.079 14.838 127.016 15.1508C126.954 15.4635 126.649 15.6663 126.337 15.6038C124.627 15.2618 123.214 14.1898 122.078 12.619V18.75H123.15C125.46 18.75 126.615 18.75 127.498 18.3004C128.274 17.9049 128.905 17.2739 129.3 16.4977C129.75 15.6153 129.75 14.4602 129.75 12.15V11.0775H122.45Z" fill="var(--fill-0, #008BFF)" style="fill:#008BFF;fill:color(display-p3 0.0000 0.5451 1.0000);fill-opacity:1;"/>
<path d="M129.75 9.9225V8.85C129.75 6.53978 129.75 5.38468 129.3 4.50229C128.905 3.72612 128.274 3.09508 127.498 2.6996C126.615 2.25 125.46 2.25 123.15 2.25H122.078V7.39311C122.256 7.02863 122.471 6.68494 122.742 6.4142C123.216 5.93995 123.885 5.51796 124.612 5.36424C125.36 5.20594 126.19 5.33382 126.858 6.00197C127.201 6.34417 127.39 6.74811 127.431 7.18047C127.471 7.60238 127.368 8.011 127.196 8.37546C126.92 8.9619 126.438 9.49964 125.903 9.9225H129.75Z" fill="var(--fill-0, #008BFF)" style="fill:#008BFF;fill:color(display-p3 0.0000 0.5451 1.0000);fill-opacity:1;"/>
<path d="M124.851 6.49422C124.386 6.59264 123.909 6.88098 123.558 7.23118C123.25 7.53929 123.006 8.08103 122.76 8.7797C122.702 8.94542 122.644 9.12192 122.584 9.30253C122.517 9.50289 122.449 9.70843 122.378 9.90976C122.515 9.89692 122.662 9.88071 122.816 9.86022C123.578 9.7587 124.391 9.56445 124.892 9.23035C125.454 8.85598 125.928 8.35591 126.151 7.88324C126.26 7.65174 126.297 7.45294 126.281 7.29038C126.267 7.13828 126.204 6.9807 126.042 6.81874C125.701 6.47857 125.294 6.40039 124.851 6.49422Z" fill="var(--fill-0, #008BFF)" style="fill:#008BFF;fill:color(display-p3 0.0000 0.5451 1.0000);fill-opacity:1;"/>
<path d="M119.442 7.23118C119.091 6.88098 118.614 6.59264 118.149 6.49422C117.706 6.40039 117.299 6.47857 116.958 6.81874C116.796 6.9807 116.733 7.13828 116.719 7.29038C116.703 7.45294 116.74 7.65174 116.849 7.88324C117.072 8.35591 117.546 8.85598 118.108 9.23035C118.609 9.56445 119.422 9.7587 120.184 9.86022C120.338 9.88071 120.485 9.89692 120.622 9.90976C120.551 9.70839 120.483 9.50293 120.416 9.30253C120.356 9.12192 120.298 8.94542 120.24 8.7797C119.994 8.08103 119.75 7.53929 119.442 7.23118Z" fill="var(--fill-0, #008BFF)" style="fill:#008BFF;fill:color(display-p3 0.0000 0.5451 1.0000);fill-opacity:1;"/>
<path d="M216.25 9.85C216.25 7.53978 216.25 6.38468 216.7 5.50229C217.095 4.72612 217.726 4.09508 218.502 3.6996C219.385 3.25 220.54 3.25 222.85 3.25H223.923V8.39311C223.744 8.02863 223.529 7.68494 223.258 7.4142C222.784 6.93995 222.115 6.51796 221.388 6.36424C220.64 6.20594 219.81 6.33382 219.142 7.00197C218.799 7.34417 218.61 7.74811 218.569 8.18047C218.529 8.60238 218.632 9.011 218.804 9.37546C219.08 9.9619 219.562 10.4996 220.097 10.9225H216.25V9.85Z" fill="var(--fill-0, #008BFF)" style="fill:#008BFF;fill:color(display-p3 0.0000 0.5451 1.0000);fill-opacity:1;"/>
<path d="M216.25 12.0775V13.15C216.25 15.4602 216.25 16.6153 216.7 17.4977C217.095 18.2739 217.726 18.9049 218.502 19.3004C219.385 19.75 220.54 19.75 222.85 19.75H223.923V13.619C222.786 15.1898 221.373 16.2618 219.663 16.6038C219.351 16.6663 219.046 16.4635 218.984 16.1508C218.921 15.838 219.124 15.5338 219.437 15.4712C221.04 15.1505 222.424 13.9939 223.55 12.0775H216.25Z" fill="var(--fill-0, #008BFF)" style="fill:#008BFF;fill:color(display-p3 0.0000 0.5451 1.0000);fill-opacity:1;"/>
<path d="M225.45 12.0775C226.576 13.9939 227.96 15.1505 229.563 15.4712C229.876 15.5338 230.079 15.838 230.016 16.1508C229.954 16.4635 229.649 16.6663 229.337 16.6038C227.627 16.2618 226.214 15.1898 225.078 13.619V19.75H226.15C228.46 19.75 229.615 19.75 230.498 19.3004C231.274 18.9049 231.905 18.2739 232.3 17.4977C232.75 16.6153 232.75 15.4602 232.75 13.15V12.0775H225.45Z" fill="var(--fill-0, #008BFF)" style="fill:#008BFF;fill:color(display-p3 0.0000 0.5451 1.0000);fill-opacity:1;"/>
<path d="M232.75 10.9225V9.85C232.75 7.53978 232.75 6.38468 232.3 5.50229C231.905 4.72612 231.274 4.09508 230.498 3.6996C229.615 3.25 228.46 3.25 226.15 3.25H225.078V8.39311C225.256 8.02863 225.471 7.68494 225.742 7.4142C226.216 6.93995 226.885 6.51796 227.612 6.36424C228.36 6.20594 229.19 6.33382 229.858 7.00197C230.201 7.34417 230.39 7.74811 230.431 8.18047C230.471 8.60238 230.368 9.011 230.196 9.37546C229.92 9.9619 229.438 10.4996 228.903 10.9225H232.75Z" fill="var(--fill-0, #008BFF)" style="fill:#008BFF;fill:color(display-p3 0.0000 0.5451 1.0000);fill-opacity:1;"/>
<path d="M227.851 7.49422C227.386 7.59264 226.909 7.88098 226.558 8.23118C226.25 8.53929 226.006 9.08103 225.76 9.7797C225.702 9.94542 225.644 10.1219 225.584 10.3025C225.517 10.5029 225.449 10.7084 225.378 10.9098C225.515 10.8969 225.662 10.8807 225.816 10.8602C226.578 10.7587 227.391 10.5644 227.892 10.2303C228.454 9.85598 228.928 9.35591 229.151 8.88324C229.26 8.65174 229.297 8.45294 229.281 8.29038C229.267 8.13828 229.204 7.9807 229.042 7.81874C228.701 7.47857 228.294 7.40039 227.851 7.49422Z" fill="var(--fill-0, #008BFF)" style="fill:#008BFF;fill:color(display-p3 0.0000 0.5451 1.0000);fill-opacity:1;"/>
<path d="M222.442 8.23118C222.091 7.88098 221.614 7.59264 221.149 7.49422C220.706 7.40039 220.299 7.47857 219.958 7.81874C219.796 7.9807 219.733 8.13828 219.719 8.29038C219.703 8.45294 219.74 8.65174 219.849 8.88324C220.072 9.35591 220.546 9.85598 221.108 10.2303C221.609 10.5644 222.422 10.7587 223.184 10.8602C223.338 10.8807 223.485 10.8969 223.622 10.9098C223.551 10.7084 223.483 10.5029 223.416 10.3025C223.356 10.1219 223.298 9.94542 223.24 9.7797C222.994 9.08103 222.75 8.53929 222.442 8.23118Z" fill="var(--fill-0, #008BFF)" style="fill:#008BFF;fill:color(display-p3 0.0000 0.5451 1.0000);fill-opacity:1;"/>
</g>
</g>
</svg>
